# xmcd
#
# Track frame offsets:
#	150
#	10590
#	27777
#	39815
#	56275
#	72555
#	81225
#	94330
#	108500
#	126392
#	147092
#	169127
#	182270
#	193000
#	201557
#	220687
#	237782
#	248445
#	259102
#	280912
#	296570
#	315815
#
# Disc length: 4404
#
# Revision: 1
# Processed by: cddbd v1.5.2PL0 Copyright (c) Steve Scherf et al.
# Submitted via: Broken Cross Disk Manager 3.94.2201
#
DISCID=2f113216
DTITLE=Rusty Nugget - Takin' it to the bridge
DYEAR=1994
DGENRE=Country
TTITLE0=I've just seen a face
TTITLE1=Thunder and Lightning
TTITLE2=Maybelline
TTITLE3=Crying my heart
TTITLE4=Wine do your stuff
TTITLE5=Think it over
TTITLE6=When will I be loved?
TTITLE7=Snowbird
TTITLE8=Brand new Tenessee waltz
TTITLE9=Margharitaville
TTITLE10=Sylvia's mother
TTITLE11=Salty dog blue
TTITLE12=The race is on
TTITLE13=Miss Molly
TTITLE14=Dead Flowers
TTITLE15=Help me make it through the night
TTITLE16=Dark hollow
TTITLE17=I'll never get out of this world alive
TTITLE18=C'est la vie
TTITLE19=I knew the bird
TTITLE20=Take me back to Tulsa
TTITLE21=Johnny B. Goode
EXTD=
EXTT0=
EXTT1=
EXTT2=
EXTT3=
EXTT4=
EXTT5=
EXTT6=
EXTT7=
EXTT8=
EXTT9=
EXTT10=
EXTT11=
EXTT12=
EXTT13=
EXTT14=
EXTT15=
EXTT16=
EXTT17=
EXTT18=
EXTT19=
EXTT20=
EXTT21=
PLAYORDER=
